<?xml version="1.0" encoding="utf-8"?>
<!-- Generator: Adobe Illustrator 18.0.0, SVG Export Plug-In . SVG Version: 6.00 Build 0)  -->
<!DOCTYPE svg PUBLIC "-//W3C//DTD SVG 1.1//EN" "http://www.w3.org/Graphics/SVG/1.1/DTD/svg11.dtd">
<svg version="1.1" id="Layer_1" xmlns="http://www.w3.org/2000/svg" xmlns:xlink="http://www.w3.org/1999/xlink" x="0px" y="0px"
	 viewBox="0 0 586 518.1" enable-background="new 0 0 586 518.1" xml:space="preserve">
<image display="none" overflow="visible" width="1156" height="1296" xlink:href="../../../../../Users/imac27/Desktop/Screen Shot 2018-03-29 at 10.04.40 am.png"  transform="matrix(1.0417 0 0 1.0417 -268.2386 -81.2939)">
</image>
<g>
	<path fill="#0B3251" d="M117.1,306.3c0.7,0,1.3,0,1.8,0c15,0,29.9,0,44.9,0c5.1,0,10.1,0.8,14.8,2.9c5.2,2.3,9.3,5.8,12.2,10.6
		c3.3,5.4,5.3,11.2,6,17.5c0.8,7,0.9,14.1,1,21.2c0,5,0.1,9.9-0.1,14.9c-0.2,8.2-0.8,16.4-3,24.4c-1,3.8-2.5,7.4-4.5,10.7
		c-4.3,7.1-10.7,11.3-18.8,12.7c-2.7,0.5-5.4,0.7-8.2,0.7c-14.7,0.1-29.3,0-44,0c-0.7,0-1.3,0-2.1,0
		C117.1,383.3,117.1,344.9,117.1,306.3z M148.9,398.8c2.4,0,4.7,0,7,0c2.8-0.1,5.1-1.3,6.5-3.8c0.7-1.3,1.4-2.7,1.6-4.1
		c0.5-2.8,0.9-5.6,1-8.5c0.1-12.3,0.1-24.7,0-37c0-3.3-0.2-6.6-1.2-9.8c-1-3.1-3.1-5-6.3-5.7c-2.7-0.6-5.4-0.5-8.2-0.3
		c-0.1,0-0.2,0.1-0.3,0.3C148.9,352.6,148.9,375.5,148.9,398.8z"/>
	<path fill="#0B3251" d="M209.6,421.9c9-38.6,18-77,27.1-115.5c13.4,0,26.6,0,40.1,0c9,38.4,17.9,76.9,26.9,115.5
		c-11,0-21.8,0-32.8,0c-1.2-5.8-2.4-11.6-3.6-17.5c-7.2,0-14.3,0-21.6,0c-1.3,5.8-2.1,11.7-3.3,17.6
		C231.5,421.9,220.7,421.9,209.6,421.9z M256.4,331.4c-0.7,4.3-1.3,8.2-1.9,12.2c-0.6,3.9-1.3,7.9-1.9,11.8
		c-0.6,3.9-1.2,7.9-1.8,11.8c-0.6,3.9-1.4,7.8-1.7,11.8c5,0,9.7,0,14.4,0c0-0.4,0.1-0.7,0.1-0.9c-2.2-15.4-4.5-30.7-6.7-46.1
		C257,331.9,256.8,331.8,256.4,331.4z"/>
	<path fill="#0B3251" d="M103.4,421.9c-11,0-21.9,0-32.8,0c-1.2-5.9-2.4-11.7-3.6-17.6c-7.3,0-14.3,0-21.6,0
		c-1.1,5.8-2.1,11.7-3.2,17.6c-10.9,0-21.7,0-32.5,0c-0.1-1.2,25.8-112.5,26.9-115.5c13.2,0,26.5,0,40,0
		C85.5,344.8,94.4,383.3,103.4,421.9z M48.9,378.9c1.4,0.4,13,0.4,14.4,0c0-2.1-6.4-46-7-47.2C55.8,332.8,48.9,376.6,48.9,378.9z"/>
	<path fill="#0B3251" d="M508.1,306.3c13.3,0,26.5,0,40,0c9,38.5,17.9,76.9,26.9,115.5c-11.1,0-21.9,0-32.8,0
		c-1.2-5.9-2.4-11.7-3.6-17.6c-7.3,0-14.3,0-21.6,0c-1.1,5.9-2.1,11.7-3.2,17.6c-10.9,0-21.7,0-32.5,0
		C481.1,420.6,507,309.2,508.1,306.3z M528.2,331.7c-0.1,0-0.3,0-0.4,0c-0.9,3.8-1.3,7.8-1.9,11.7c-0.7,3.9-1.2,7.9-1.8,11.8
		c-0.6,4-1.3,8-1.9,12c-0.6,3.9-1.2,7.9-1.8,11.8c2,0.5,13.4,0.4,14.7-0.1C532.8,363.1,530.5,347.4,528.2,331.7z"/>
	<path fill="#0B3251" d="M349.1,378.3c0,14.6,0,29,0,43.5c-10.7,0-21.2,0-31.8,0c0-38.5,0-76.9,0-115.6c0.7,0,1.2,0,1.8,0
		c13.9,0,27.9,0,41.8,0c5.3,0,10.6,0.7,15.7,2.3c9.3,3,15.4,9.1,18.1,18.5c2.5,8.8,2.7,17.7,0.7,26.6c-2.8,12.3-10.7,19.8-22.8,23
		c-4.5,1.2-9.1,1.5-13.7,1.6c-2.6,0-5.1,0-7.7,0C350.6,378.3,350,378.3,349.1,378.3z M349.3,355.1c2.2,0.2,4.2,0.1,6.2-0.1
		c4.3-0.5,6.6-2.5,7.6-6.7c0.9-3.6,0.9-7.2,0.2-10.9c-0.5-2.6-1.6-4.9-3.9-6.3c-3.1-1.9-6.6-1.7-10.1-1.6
		C349.3,338.1,349.3,346.5,349.3,355.1z"/>
	<path fill="#0B3251" d="M429.5,333.4c-7.4-0.1-14.5,0-21.8-0.1c0-9.1,0-17.9,0-26.8c1.2-0.4,73.1-0.5,75.4-0.1c0,8.9,0,17.7,0,26.9
		c-7.2,0.1-14.4,0-21.8,0.1c0,29.6,0,59,0,88.5c-10.7,0-21.1,0-31.8,0C429.5,392.4,429.5,363,429.5,333.4z"/>
	<path fill="#0B3251" d="M105,492.8c0.5,0.2,1,0.3,1.6,0.5c2.6,0.6,4.3,2.3,4.8,4.8c0.5,2.4,0.8,4.8,1,7.3c0.2,2.5,0.2,5,0.4,7.5
		c0.1,1.4,0.5,2.7,1.7,3.9c-0.5,0.1-0.7,0.2-1,0.2c-2.7,0-5.4,0-8.1,0c-1.3,0-1.5-0.1-1.8-1.3c-0.3-1.2-0.5-2.4-0.5-3.5
		c-0.2-3.2-0.2-6.4-0.3-9.6c0-0.8-0.1-1.6-0.3-2.4c-0.7-2.4-2.3-3.8-4.8-3.9c-1.9-0.1-3.9,0-6,0c0,0.7-0.1,1.3-0.1,1.9
		c0,5.5,0,11.1,0,16.6c0,0.7-0.1,1.3-0.1,2.1c-3.2,0-6.3,0-9.4,0c0-16.3,0-32.5,0-48.8c0.6,0,1.1-0.1,1.6-0.1c5.7,0,11.3-0.1,17,0
		c1.6,0,3.3,0.3,4.9,0.8c3.8,1.2,6.1,3.9,7,7.8c0.7,3.1,0.6,6.2-0.3,9.3c-0.9,3.1-2.9,5.4-6.1,6.4c-0.3,0.1-0.5,0.2-0.8,0.4
		C105.1,492.6,105.1,492.7,105,492.8z M91.5,489.5c2.5,0.1,4.8,0.2,7.1-0.4c2.1-0.6,3.4-1.9,4-4c0.5-1.7,0.5-3.5,0.2-5.2
		c-0.5-2.4-1.9-4-4.3-4.5c-2.3-0.5-4.6-0.2-7-0.3C91.5,479.9,91.5,484.6,91.5,489.5z"/>
	<path fill="#0B3251" d="M240,468c0.5,0,1.1-0.1,1.6-0.1c4.9,0,9.8,0,14.7,0c1.5,0,3.1,0.2,4.6,0.5c4,0.9,6.9,3.4,8.5,7.2
		c1.2,2.8,1.7,5.7,2,8.6c0.5,5.9,0.5,11.7-0.3,17.6c-0.3,2.2-0.8,4.4-1.6,6.5c-1.9,5.4-6,8.2-11.7,8.5c-5.7,0.3-11.4,0.1-17.1,0.1
		c-0.2,0-0.4-0.1-0.7-0.1C239.7,515.6,239.6,470,240,468z M249.5,509.8c2,0,3.7,0.1,5.5,0c2.7-0.1,4.7-1.5,5.6-4
		c0.5-1.4,0.8-2.8,1-4.3c0.7-5.3,0.5-10.7,0.3-16.1c-0.1-2-0.6-3.9-1.1-5.8c-0.5-1.7-1.7-3.1-3.4-3.9c-1.7-0.8-6-1-7.9-0.4
		C249.5,486.8,249.5,498.2,249.5,509.8z"/>
	<path fill="#0B3251" d="M159.6,492.9c0.2-5.2,0.1-10,1.3-14.7c0.1-0.5,0.2-1,0.4-1.5c1.9-6.2,6.3-9.5,12.7-9.8
		c2.7-0.1,5.3-0.1,8,0.6c3.7,1.1,6.3,3.3,8,6.7c1.5,3.3,2,6.7,2.3,10.3c0.4,5.2,0.4,10.5,0,15.7c-0.2,3-0.7,5.9-1.7,8.7
		c-2,5.6-6.1,8.4-11.8,8.8c-2.5,0.2-5,0.1-7.5-0.3c-4.4-0.7-7.5-3.4-9.3-7.5c-1.3-3-1.8-6.1-2-9.3
		C159.7,498,159.7,495.3,159.6,492.9z M183,492.6c-0.2-3.5-0.2-7-0.6-10.4c-0.2-1.8-0.7-3.6-1.4-5.3c-0.9-2.1-2.7-2.9-5-2.9
		c-2.2,0-4,0.8-5,2.9c-0.5,1-0.9,2.1-1,3.2c-0.3,3-0.7,6-0.7,9c0,4.6,0.1,9.1,0.4,13.7c0.1,1.8,0.7,3.6,1.4,5.3
		c0.9,2.1,2.7,2.9,5,2.9c2.2,0,4-0.8,5-2.8c0.5-1,0.8-2.1,1.1-3.2C183,500.8,182.8,496.7,183,492.6z"/>
	<path fill="#951C1F" d="M586,442c0,0.5,0,0.9,0,1.4c-195.3,0-390.6,0-586,0c0-0.5,0-0.9,0-1.4C195.3,442,390.6,442,586,442z"/>
	<path fill="#0B3251" d="M318.9,468c3.2,0,6.2,0,9.4,0c0,0.8,0,1.4,0,2.1c0,10.3,0,20.7,0,31c0,1.7,0.1,3.4,0.4,5.1
		c0.7,3.5,3.3,5.2,6.8,4.5c2.1-0.4,3.4-1.8,3.8-3.7c0.4-1.9,0.6-3.8,0.6-5.8c0.1-10.3,0-20.7,0-31c0-0.7,0.1-1.4,0.1-2.3
		c3.2,0,6.2,0,9.3,0c0.1,0.4,0.1,0.9,0.1,1.3c0,11.4,0,22.7,0,34.1c0,1.7-0.3,3.4-0.8,5.1c-1.3,4.8-4.4,7.8-9.2,8.9
		c-3.9,0.9-7.8,0.9-11.7-0.1c-4.3-1.1-7-3.9-8.3-8.1c-0.7-2.1-0.9-4.4-0.9-6.6c0-10.9,0-21.8,0-32.7
		C318.7,469.3,318.8,468.7,318.9,468z"/>
	<path fill="#0B3251" d="M546,502c3.1,0,6.2,0,9.3,0c0.1,0.5,0.1,0.8,0.2,1.2c0,0.6,0,1.1,0.1,1.7c0.3,4.8,4.4,7.4,8.9,5.5
		c1.3-0.5,2.2-1.4,2.8-2.6c1.3-2.6,1.2-7-2.4-9.1c-1.7-1-3.5-1.7-5.3-2.4c-1.8-0.8-3.6-1.4-5.4-2.2c-6-3-8.1-7.3-7.7-14.5
		c0.1-1,0.3-2,0.5-3c1.2-5,4.5-8,9.4-9.2c3.5-0.8,7-0.8,10.5,0c5.6,1.3,9.9,5.4,9.3,13.5c-1.2,0.4-6.3,0.5-9,0.1
		c-0.1-0.5-0.2-1.1-0.3-1.7c-0.1-0.7-0.2-1.4-0.4-2c-0.9-2.6-2.9-3.7-6-3.3c-2.5,0.3-4.2,2-4.4,4.7c-0.4,3.9,0.7,5.8,4.2,7.5
		c2.7,1.3,5.5,2.4,8.3,3.7c1.7,0.8,3.4,1.7,4.9,2.8c2.7,1.9,4.1,4.7,4.2,8c0.1,2.1,0.1,4.2-0.3,6.3c-0.9,5.2-4,8.5-9,9.9
		c-4.6,1.3-9.2,1.4-13.9,0.2c-5-1.3-7.8-4.7-8.6-9.8C545.8,505.7,545.6,503.9,546,502z"/>
	<path fill="#0B3251" d="M427,484.3c-3.2,0-6.2,0-9.3,0c-0.2-1.5-0.2-3-0.5-4.4c-0.2-1.2-0.6-2.3-1-3.4c-1.4-3.1-7.2-3.5-8.8,0
		c-0.7,1.6-1.3,3.3-1.5,5.1c-0.8,7.8-1,15.6,0.2,23.4c0.2,1.2,0.6,2.3,1.1,3.4c0.8,1.8,2.3,2.6,4.2,2.7c2,0,3.8-0.5,4.7-2.4
		c0.7-1.4,1.1-2.9,1.4-4.4c0.3-1.8,0.4-3.6,0.5-5.6c3.1-0.2,6.1-0.1,9.4,0c0,0.9,0.1,1.8,0,2.6c-0.3,2.4-0.5,4.9-1.1,7.2
		c-1.4,5.4-5,8.6-10.5,9.4c-3.1,0.5-6.2,0.4-9.2-0.4c-4.1-1.1-6.9-3.6-8.5-7.5c-1.3-3-1.8-6.3-2-9.5c-0.4-5.3-0.4-10.6,0-15.9
		c0.2-2.8,0.6-5.7,1.6-8.4c1.8-5.1,5.2-8.6,12.2-9.1c2.2-0.2,4.5,0,6.6,0.3c5.1,0.8,8.3,3.8,9.7,8.7
		C427,478.6,427.2,481.3,427,484.3z"/>
	<path fill="#0B3251" d="M15.1,497.3c0,6.6,0,13,0,19.3c-1.3,0.5-6.6,0.6-9.2,0.3c-0.4-1.2-0.5-46.6-0.1-48.8c0.5,0,1.1-0.1,1.6-0.1
		c5.1,0,10.3,0,15.4,0c1.5,0,3,0.2,4.4,0.6c3.6,1,6,3.4,7.3,6.9c1.7,4.4,1.8,8.8,0.3,13.3c-1.6,5-5.4,7.5-10.4,8.3
		c-2.3,0.4-4.7,0.3-7,0.4C16.8,497.4,16.1,497.3,15.1,497.3z M15.2,490.1c2,0,3.9,0.2,5.7,0c2.7-0.3,4.4-2.1,5-4.7
		c0.5-2,0.4-4.1-0.1-6.1c-0.6-2.1-1.9-3.5-4.1-4c-2.1-0.5-4.3-0.3-6.5-0.2C15.2,480.1,15.2,485,15.2,490.1z"/>
	<path fill="#0B3251" d="M471.8,468c10.2,0,20.3,0,30.6,0c0,2.6,0,5,0,7.7c-3.5,0-6.9,0-10.4,0c-0.2,3.6-0.1,7-0.1,10.4
		c0,3.4,0,6.7,0,10.1c0,3.4,0,6.8,0,10.3c0,3.4,0,6.7,0,10.3c-3.2,0.1-6.2,0.1-9.4,0c-0.2-4.6-0.1-9.1-0.1-13.5c0-4.6,0-9.1,0-13.7
		c0-4.5,0-9,0-13.7c-3.5-0.5-7,0.1-10.5-0.3C471.8,473.1,471.8,470.6,471.8,468z"/>
</g>
<g>
	<g>
		
			<linearGradient id="SVGID_1_" gradientUnits="userSpaceOnUse" x1="196.184" y1="282.2597" x2="196.184" y2="103.9353" gradientTransform="matrix(0.7071 0.7071 0.7071 -0.7071 -62.8365 108.8746)">
			<stop  offset="0" style="stop-color:#DDB926"/>
			<stop  offset="1" style="stop-color:#FED402"/>
		</linearGradient>
		<path fill="url(#SVGID_1_)" d="M146.9,111.1l95.8,95.8l-4.6,4.6c-14.2,14.2-37.1,14.2-51.3,0L86.3,111.1L186.8,10.6
			c14.2-14.2,37.2-14.2,51.3,0l4.6,4.6L146.9,111.1z"/>
	</g>
	<g>
		
			<linearGradient id="SVGID_2_" gradientUnits="userSpaceOnUse" x1="242.5112" y1="328.5788" x2="242.5112" y2="150.2653" gradientTransform="matrix(0.7071 0.7071 0.7071 -0.7071 -62.8365 108.8746)">
			<stop  offset="0" style="stop-color:#951C1F"/>
			<stop  offset="1" style="stop-color:#B62025"/>
		</linearGradient>
		<path fill="url(#SVGID_2_)" d="M203.2,111.1l100.4,100.4l0,0c-14.2,14.2-37.1,14.2-51.3,0L151.9,111.1L252.3,10.6
			c14.2-14.2,37.2-14.2,51.3,0l0,0L203.2,111.1z"/>
	</g>
	<g>
		
			<linearGradient id="SVGID_3_" gradientUnits="userSpaceOnUse" x1="282.3225" y1="368.3932" x2="282.3225" y2="190.0739" gradientTransform="matrix(0.7071 0.7071 0.7071 -0.7071 -62.8365 108.8746)">
			<stop  offset="0" style="stop-color:#0B3251"/>
			<stop  offset="1" style="stop-color:#0A4977"/>
		</linearGradient>
		<path fill="url(#SVGID_3_)" d="M359.9,10.6l100.4,100.4L359.9,211.5c-14.2,14.2-37.1,14.2-51.3,0L208.2,111.1L308.6,10.6
			C322.8-3.5,345.7-3.5,359.9,10.6z"/>
	</g>
</g>
</svg>
