<?xml version="1.0" encoding="utf-8"?>
<!-- Generator: Adobe Illustrator 18.0.0, SVG Export Plug-In . SVG Version: 6.00 Build 0)  -->
<!DOCTYPE svg PUBLIC "-//W3C//DTD SVG 1.1//EN" "http://www.w3.org/Graphics/SVG/1.1/DTD/svg11.dtd">
<svg version="1.1" id="Layer_1" xmlns="http://www.w3.org/2000/svg" xmlns:xlink="http://www.w3.org/1999/xlink" x="0px" y="0px"
	 viewBox="0 0 1042.9 263.8" enable-background="new 0 0 1042.9 263.8" xml:space="preserve">
<image display="none" overflow="visible" width="1156" height="1296" xlink:href="../../../../../Users/imac27/Desktop/Screen Shot 2018-03-29 at 10.04.40 am.png"  transform="matrix(1.0417 0 0 1.0417 -7.6946 -948.1358)">
</image>
<g>
	<path fill="#0B3251" d="M536.1,0c0.8,0,1.4,0,2,0c16.2,0,32.3,0,48.5,0c5.5,0,10.9,0.9,16,3.2c5.6,2.5,10,6.3,13.2,11.5
		c3.6,5.8,5.7,12.1,6.5,18.9c0.8,7.6,1,15.3,1,22.9c0,5.4,0.1,10.7-0.1,16.1c-0.3,8.9-0.8,17.7-3.2,26.4c-1.1,4.1-2.7,8-4.9,11.6
		c-4.7,7.7-11.6,12.2-20.3,13.7c-2.9,0.5-5.9,0.7-8.8,0.8c-15.9,0.1-31.7,0-47.6,0c-0.7,0-1.5,0-2.3,0
		C536.1,83.3,536.1,41.8,536.1,0z M570.5,100c2.6,0,5.1,0,7.5,0c3.1-0.1,5.5-1.4,7-4.1c0.8-1.4,1.5-2.9,1.7-4.4c0.5-3,1-6.1,1-9.2
		c0.1-13.3,0.1-26.7,0-40c0-3.6-0.2-7.2-1.3-10.6c-1.1-3.3-3.4-5.4-6.8-6.1c-2.9-0.6-5.9-0.5-8.8-0.3c-0.1,0-0.2,0.1-0.4,0.3
		C570.5,50.2,570.5,74.9,570.5,100z"/>
	<path fill="#0B3251" d="M636.2,125c9.8-41.7,19.5-83.3,29.2-124.8c14.5,0,28.8,0,43.4,0c9.7,41.5,19.3,83.1,29.1,124.8
		c-11.9,0-23.6,0-35.5,0c-1.3-6.3-2.5-12.6-3.8-19c-7.8,0-15.4,0-23.3,0c-1.4,6.2-2.2,12.6-3.6,19C659.8,125,648.1,125,636.2,125z
		 M686.8,27.2c-0.7,4.6-1.4,8.9-2,13.2c-0.7,4.3-1.4,8.5-2,12.8c-0.7,4.3-1.3,8.5-2,12.8c-0.6,4.2-1.5,8.4-1.9,12.8
		c5.4,0,10.4,0,15.6,0c0-0.4,0.1-0.7,0.1-1c-2.4-16.6-4.8-33.2-7.3-49.8C687.3,27.8,687.1,27.7,686.8,27.2z"/>
	<path fill="#0B3251" d="M521.4,125c-11.9,0-23.6,0-35.5,0c-1.3-6.4-2.6-12.7-3.8-19c-7.9,0-15.5,0-23.4,0c-1.2,6.3-2.3,12.6-3.5,19
		c-11.8,0-23.5,0-35.2,0c-0.1-1.3,27.9-121.6,29.1-124.8c14.3,0,28.7,0,43.3,0C502,41.7,511.7,83.2,521.4,125z M462.5,78.5
		c1.5,0.4,14,0.4,15.6,0c0-2.3-6.9-49.7-7.5-51C470,28.7,462.5,76,462.5,78.5z"/>
	<path fill="#0B3251" d="M958.7,0.1c14.4,0,28.7,0,43.2,0c9.7,41.6,19.4,83.2,29.1,124.9c-11.9,0-23.6,0-35.5,0
		c-1.3-6.4-2.6-12.7-3.8-19c-7.9,0-15.5,0-23.4,0c-1.2,6.3-2.3,12.6-3.5,19c-11.8,0-23.5,0-35.2,0C929.5,123.6,957.6,3.2,958.7,0.1z
		 M980.5,27.5c-0.2,0-0.3,0-0.5,0c-1,4.1-1.4,8.4-2.1,12.6c-0.7,4.2-1.3,8.5-2,12.8c-0.7,4.3-1.4,8.6-2,13c-0.7,4.2-1.3,8.5-2,12.7
		c2.1,0.5,14.5,0.4,15.9-0.1C985.4,61.5,982.9,44.5,980.5,27.5z"/>
	<path fill="#0B3251" d="M786.9,77.9c0,15.8,0,31.3,0,47c-11.6,0-22.9,0-34.4,0c0-41.6,0-83.1,0-124.9c0.7,0,1.3,0,1.9,0
		c15.1,0,30.1-0.1,45.2,0c5.7,0,11.4,0.7,16.9,2.5c10.1,3.2,16.6,9.9,19.5,20c2.7,9.5,3,19.1,0.7,28.7
		c-3.1,13.3-11.6,21.4-24.6,24.9c-4.9,1.3-9.8,1.7-14.8,1.8c-2.8,0.1-5.6,0-8.3,0C788.5,77.9,787.9,77.9,786.9,77.9z M787.1,52.8
		c2.3,0.2,4.5,0.1,6.7-0.1c4.7-0.6,7.1-2.7,8.2-7.2c0.9-3.9,1-7.8,0.2-11.7c-0.5-2.8-1.7-5.3-4.3-6.9c-3.4-2.1-7.1-1.9-10.9-1.7
		C787.1,34.5,787.1,43.6,787.1,52.8z"/>
	<path fill="#0B3251" d="M873.8,29.4c-8-0.1-15.7,0-23.5-0.1c0-9.8,0-19.4,0-28.9c1.3-0.4,79-0.5,81.4-0.1c0,9.6,0,19.2,0,29
		c-7.8,0.1-15.6,0-23.5,0.1c0,32,0,63.8,0,95.6c-11.5,0-22.9,0-34.4,0C873.8,93.1,873.8,61.4,873.8,29.4z"/>
	<path fill="#0B3251" d="M523.1,201.7c0.6,0.2,1.1,0.4,1.7,0.5c2.8,0.7,4.6,2.4,5.2,5.2c0.5,2.6,0.8,5.2,1,7.9
		c0.2,2.7,0.2,5.4,0.4,8.1c0.1,1.5,0.5,2.9,1.8,4.2c-0.5,0.1-0.8,0.2-1.1,0.2c-2.9,0-5.8,0-8.7,0c-1.4,0-1.6-0.1-2-1.4
		c-0.3-1.2-0.5-2.5-0.6-3.8c-0.2-3.5-0.2-6.9-0.4-10.4c0-0.9-0.1-1.7-0.4-2.6c-0.7-2.6-2.4-4.1-5.2-4.2c-2.1-0.1-4.2,0-6.5,0
		c0,0.8-0.1,1.4-0.1,2.1c0,6,0,12,0,18c0,0.7-0.1,1.4-0.1,2.2c-3.5,0-6.8,0-10.2,0c0-17.6,0-35.1,0-52.7c0.6-0.1,1.2-0.1,1.7-0.1
		c6.1,0,12.2-0.1,18.3,0c1.8,0,3.6,0.3,5.3,0.8c4.1,1.3,6.5,4.2,7.5,8.4c0.8,3.4,0.7,6.7-0.3,10.1c-1,3.4-3.1,5.8-6.6,7
		c-0.3,0.1-0.6,0.2-0.8,0.4C523.2,201.5,523.2,201.5,523.1,201.7z M508.5,198c2.7,0.1,5.2,0.3,7.7-0.4c2.2-0.6,3.7-2.1,4.4-4.3
		c0.5-1.9,0.6-3.8,0.2-5.7c-0.5-2.6-2.1-4.3-4.7-4.9c-2.5-0.6-5-0.2-7.6-0.3C508.5,187.7,508.5,192.7,508.5,198z"/>
	<path fill="#0B3251" d="M669,174.9c0.6,0,1.2-0.1,1.8-0.1c5.3,0,10.6,0,15.9,0c1.7,0,3.3,0.2,4.9,0.5c4.4,1,7.4,3.7,9.2,7.8
		c1.3,3,1.8,6.1,2.1,9.3c0.6,6.3,0.6,12.7-0.4,19c-0.3,2.4-0.9,4.7-1.7,7c-2.1,5.9-6.5,8.9-12.6,9.2c-6.2,0.3-12.3,0.1-18.5,0.1
		c-0.2,0-0.5-0.1-0.7-0.1C668.6,226.3,668.6,177,669,174.9z M679.3,220c2.1,0,4,0.1,5.9,0c2.9-0.1,5-1.6,6-4.4
		c0.5-1.5,0.9-3.1,1.1-4.6c0.7-5.8,0.6-11.6,0.3-17.3c-0.1-2.1-0.6-4.3-1.2-6.3c-0.5-1.9-1.8-3.4-3.7-4.2c-1.8-0.8-6.4-1.1-8.5-0.4
		C679.3,195.1,679.3,207.5,679.3,220z"/>
	<path fill="#0B3251" d="M582.1,201.8c0.2-5.6,0.2-10.8,1.4-15.9c0.1-0.5,0.3-1.1,0.4-1.6c2.1-6.7,6.8-10.3,13.8-10.6
		c2.9-0.1,5.8-0.1,8.6,0.7c4,1.1,6.8,3.6,8.6,7.3c1.7,3.5,2.2,7.3,2.5,11.1c0.4,5.7,0.4,11.3,0,17c-0.2,3.2-0.7,6.4-1.8,9.4
		c-2.2,6-6.5,9.1-12.8,9.5c-2.7,0.2-5.4,0.1-8.1-0.4c-4.8-0.8-8.1-3.6-10-8.1c-1.4-3.2-1.9-6.6-2.2-10.1
		C582.2,207.2,582.2,204.3,582.1,201.8z M607.4,201.4c-0.2-3.8-0.3-7.5-0.6-11.2c-0.2-1.9-0.7-3.9-1.5-5.7c-0.9-2.3-2.9-3.1-5.4-3.2
		c-2.4,0-4.4,0.8-5.4,3.1c-0.5,1.1-1,2.3-1.1,3.5c-0.4,3.2-0.7,6.5-0.8,9.7c0,4.9,0.1,9.9,0.4,14.8c0.1,1.9,0.7,3.9,1.5,5.7
		c0.9,2.3,2.9,3.1,5.4,3.1c2.4,0,4.4-0.8,5.4-3.1c0.5-1.1,0.9-2.3,1.1-3.5C607.4,210.3,607.2,205.8,607.4,201.4z"/>
	<path fill="#951C1F" d="M1042.9,146.8c0,0.5,0,1,0,1.5c-211.1,0-422.1,0-633.3,0c0-0.5,0-1,0-1.5
		C620.7,146.8,831.8,146.8,1042.9,146.8z"/>
	<path fill="#0B3251" d="M754.2,174.9c3.5,0,6.8,0,10.2,0c0,0.8,0,1.6,0,2.3c0,11.2,0,22.3,0,33.5c0,1.8,0.1,3.7,0.4,5.5
		c0.7,3.8,3.5,5.6,7.3,4.9c2.2-0.4,3.7-1.9,4.1-4c0.4-2,0.7-4.1,0.7-6.2c0.1-11.2,0-22.3,0-33.5c0-0.8,0.1-1.6,0.1-2.4
		c3.4,0,6.7,0,10,0c0.1,0.5,0.2,0.9,0.2,1.4c0,12.3,0,24.6,0,36.8c0,1.8-0.3,3.7-0.8,5.5c-1.4,5.2-4.8,8.4-9.9,9.7
		c-4.2,1-8.4,1-12.6-0.2c-4.6-1.2-7.5-4.3-8.9-8.8c-0.7-2.3-0.9-4.7-0.9-7.1c0-11.8,0-23.6,0-35.4
		C754.1,176.2,754.2,175.6,754.2,174.9z"/>
	<path fill="#0B3251" d="M999.7,211.6c3.4,0,6.7,0,10,0c0.1,0.5,0.2,0.9,0.2,1.3c0,0.6,0,1.2,0.1,1.8c0.4,5.2,4.8,8,9.6,6
		c1.4-0.6,2.4-1.5,3.1-2.8c1.4-2.8,1.3-7.6-2.6-9.8c-1.8-1-3.8-1.8-5.7-2.6c-1.9-0.8-3.9-1.5-5.8-2.4c-6.4-3.3-8.8-7.9-8.3-15.7
		c0.1-1.1,0.3-2.2,0.5-3.3c1.3-5.4,4.8-8.6,10.1-9.9c3.8-0.9,7.6-0.8,11.4,0.1c6.1,1.4,10.7,5.9,10.1,14.6c-1.3,0.4-6.8,0.5-9.7,0.2
		c-0.1-0.6-0.2-1.2-0.3-1.9c-0.1-0.7-0.2-1.5-0.5-2.2c-1-2.8-3.1-4-6.5-3.6c-2.7,0.3-4.5,2.2-4.8,5c-0.4,4.2,0.7,6.3,4.6,8.1
		c2.9,1.4,6,2.6,8.9,4c1.8,0.9,3.6,1.9,5.3,3.1c2.9,2.1,4.5,5.1,4.6,8.7c0.1,2.3,0.1,4.6-0.3,6.8c-0.9,5.6-4.3,9.2-9.7,10.7
		c-4.9,1.4-10,1.5-15,0.2c-5.4-1.4-8.4-5.1-9.2-10.6C999.5,215.6,999.2,213.6,999.7,211.6z"/>
	<path fill="#0B3251" d="M871.1,192.4c-3.5,0-6.7,0-10.1,0c-0.2-1.6-0.2-3.2-0.5-4.8c-0.2-1.3-0.6-2.5-1.1-3.7
		c-1.5-3.3-7.8-3.8-9.5,0c-0.8,1.7-1.4,3.6-1.6,5.5c-0.9,8.4-1,16.9,0.2,25.3c0.2,1.3,0.6,2.5,1.2,3.7c0.9,1.9,2.4,2.8,4.6,2.9
		c2.2,0,4.1-0.5,5.1-2.6c0.7-1.5,1.2-3.1,1.5-4.7c0.3-1.9,0.4-3.9,0.6-6c3.3-0.2,6.6-0.1,10.1,0c0,1,0.1,1.9,0,2.8
		c-0.3,2.6-0.5,5.3-1.2,7.8c-1.6,5.8-5.4,9.3-11.4,10.2c-3.3,0.5-6.6,0.4-9.9-0.4c-4.4-1.2-7.5-3.9-9.2-8.1
		c-1.4-3.3-1.9-6.8-2.2-10.3c-0.4-5.7-0.4-11.5,0-17.2c0.2-3.1,0.7-6.1,1.7-9.1c1.9-5.5,5.6-9.3,13.2-9.8c2.4-0.2,4.8-0.1,7.2,0.3
		c5.5,0.8,9,4.1,10.5,9.4C871,186.3,871.3,189.2,871.1,192.4z"/>
	<path fill="#0B3251" d="M426,206.5c0,7.2,0,14,0,20.8c-1.4,0.5-7.1,0.6-10,0.3c-0.4-1.3-0.5-50.4-0.1-52.8c0.6,0,1.2-0.1,1.8-0.1
		c5.6,0,11.1-0.1,16.7,0c1.6,0,3.2,0.2,4.7,0.6c3.9,1.1,6.5,3.7,7.9,7.4c1.8,4.7,1.9,9.5,0.4,14.3c-1.8,5.4-5.8,8.1-11.2,9
		c-2.5,0.4-5,0.3-7.6,0.4C427.8,206.6,427,206.5,426,206.5z M426.1,198.7c2.2,0,4.2,0.2,6.2,0c2.9-0.4,4.7-2.2,5.4-5.1
		c0.5-2.2,0.5-4.4-0.2-6.6c-0.6-2.2-2.1-3.7-4.4-4.3c-2.3-0.5-4.6-0.3-7-0.2C426.1,188,426.1,193.2,426.1,198.7z"/>
	<path fill="#0B3251" d="M919.5,174.9c11,0,22,0,33,0c0,2.8,0,5.5,0,8.4c-3.7,0-7.4,0-11.3,0c-0.2,3.9-0.1,7.6-0.1,11.3
		c0,3.6,0,7.3,0,10.9c0,3.7,0,7.4,0,11.1c0,3.6,0,7.3,0,11.2c-3.4,0.1-6.7,0.1-10.2,0c-0.2-4.9-0.1-9.8-0.1-14.6c0-4.9,0-9.9,0-14.8
		c0-4.9,0-9.7,0-14.8c-3.8-0.5-7.6,0.1-11.4-0.3C919.5,180.4,919.5,177.7,919.5,174.9z"/>
</g>
<g>
	<g>
		
			<linearGradient id="SVGID_1_" gradientUnits="userSpaceOnUse" x1="406.3885" y1="-374.4376" x2="406.3885" y2="-563.8445" gradientTransform="matrix(0.7071 0.7071 0.7071 -0.7071 178.3029 -473.2873)">
			<stop  offset="0" style="stop-color:#DDB926"/>
			<stop  offset="1" style="stop-color:#FED402"/>
		</linearGradient>
		<path fill="url(#SVGID_1_)" d="M64.3,145.8l101.8,101.8l-4.9,4.9c-15.1,15.1-39.5,15.1-54.5,0L0,145.8L106.7,39.1
			c15.1-15.1,39.5-15.1,54.5,0l4.9,4.9L64.3,145.8z"/>
	</g>
	<g>
		
			<linearGradient id="SVGID_2_" gradientUnits="userSpaceOnUse" x1="455.5949" y1="-325.2398" x2="455.5949" y2="-514.6353" gradientTransform="matrix(0.7071 0.7071 0.7071 -0.7071 178.3029 -473.2873)">
			<stop  offset="0" style="stop-color:#951C1F"/>
			<stop  offset="1" style="stop-color:#B62025"/>
		</linearGradient>
		<path fill="url(#SVGID_2_)" d="M124.1,145.8l106.7,106.7l0,0c-15.1,15.1-39.5,15.1-54.5,0L69.6,145.8L176.3,39.1
			c15.1-15.1,39.5-15.1,54.5,0l0,0L124.1,145.8z"/>
	</g>
	<g>
		
			<linearGradient id="SVGID_3_" gradientUnits="userSpaceOnUse" x1="497.8804" y1="-282.951" x2="497.8804" y2="-472.3526" gradientTransform="matrix(0.7071 0.7071 0.7071 -0.7071 178.3029 -473.2873)">
			<stop  offset="0" style="stop-color:#0B3251"/>
			<stop  offset="1" style="stop-color:#0A4977"/>
		</linearGradient>
		<path fill="url(#SVGID_3_)" d="M290.6,39.1l106.7,106.7L290.6,252.5c-15.1,15.1-39.5,15.1-54.5,0L129.4,145.8L236.1,39.1
			C251.1,24.1,275.5,24.1,290.6,39.1z"/>
	</g>
</g>
</svg>
