<?xml version="1.0" encoding="UTF-8"?>
<svg width="36px" height="30px" viewBox="0 0 36 30" version="1.1" xmlns="http://www.w3.org/2000/svg" xmlns:xlink="http://www.w3.org/1999/xlink">
    <!-- Generator: Sketch 48.2 (47327) - http://www.bohemiancoding.com/sketch -->
    <title>email</title>
    <desc>Created with Sketch.</desc>
    <defs></defs>
    <g id="Contact" stroke="none" stroke-width="1" fill="none" fill-rule="evenodd" transform="translate(-327.000000, -604.000000)">
        <g id="email" transform="translate(327.000000, 604.000000)" fill="#093759" fill-rule="nonzero">
            <path d="M32.8359375,0 L11.6015625,0 C9.85689844,0 8.4375,1.44192857 8.4375,3.21428571 L8.4375,4.28571429 L7.3828125,4.28571429 C5.63814844,4.28571429 4.21875,5.72764286 4.21875,7.5 L4.21875,8.57142857 L3.1640625,8.57142857 C1.41517969,8.57142857 0,10.0189286 0,11.7857143 L0,26.7857143 C0,28.5582143 1.42228125,30 3.1640625,30 L24.2578125,30 C25.9959375,30 27.421875,28.5622857 27.421875,26.7857143 L27.421875,25.7142857 L28.6171875,25.7142857 C30.3618516,25.7142857 31.78125,24.2723571 31.78125,22.5 L31.78125,21.4285714 L32.8359375,21.4285714 C34.5806016,21.4285714 36,19.9866429 36,18.2142857 L36,3.21428571 C36,1.44192857 34.5806016,0 32.8359375,0 Z M23.7199219,10.7142857 L14.4601875,20.2093571 C14.0472422,20.6328571 13.3747031,20.6328571 12.9616875,20.2093571 L3.70195312,10.7142857 L23.7199219,10.7142857 Z M2.109375,26.3419286 L2.109375,12.126 L9.07361719,19.2672143 L2.109375,26.3419286 Z M3.60091406,27.8571429 L10.5581953,20.7895 L11.4631875,21.7175 C12.702375,22.9881429 14.7197109,22.988 15.9587578,21.7175 L16.86375,20.7895 L23.8209609,27.8571429 L3.60091406,27.8571429 Z M25.3125,26.342 L18.3482578,19.2672143 L25.3125,12.126 L25.3125,26.342 Z M29.671875,22.5 C29.671875,23.0907857 29.1987422,23.5714286 28.6171875,23.5714286 L27.421875,23.5714286 L27.421875,11.7857143 C27.421875,10.0194286 26.0071172,8.57142857 24.2578125,8.57142857 L6.328125,8.57142857 L6.328125,7.5 C6.328125,6.90921429 6.80125781,6.42857143 7.3828125,6.42857143 L28.6171875,6.42857143 C29.1987422,6.42857143 29.671875,6.90921429 29.671875,7.5 L29.671875,22.5 Z M33.890625,18.2142857 C33.890625,18.8050714 33.4174922,19.2857143 32.8359375,19.2857143 L31.78125,19.2857143 L31.78125,7.5 C31.78125,5.72764286 30.3618516,4.28571429 28.6171875,4.28571429 L10.546875,4.28571429 L10.546875,3.21428571 C10.546875,2.6235 11.0200078,2.14285714 11.6015625,2.14285714 L32.8359375,2.14285714 C33.4174922,2.14285714 33.890625,2.6235 33.890625,3.21428571 L33.890625,18.2142857 Z" id="Shape"></path>
        </g>
    </g>
</svg>