<?xml version="1.0" encoding="UTF-8"?>
<svg width="33px" height="37px" viewBox="0 0 33 37" version="1.1" xmlns="http://www.w3.org/2000/svg" xmlns:xlink="http://www.w3.org/1999/xlink">
    <!-- Generator: Sketch 48.2 (47327) - http://www.bohemiancoding.com/sketch -->
    <title>mail</title>
    <desc>Created with Sketch.</desc>
    <defs></defs>
    <g id="Contact" stroke="none" stroke-width="1" fill="none" fill-rule="evenodd" transform="translate(-329.000000, -866.000000)">
        <g id="mail" transform="translate(329.700000, 866.800000)" fill="#093759" fill-rule="nonzero">
            <path d="M15.75,4.2 C11.69721,4.2 8.4,7.49721 8.4,11.55 C8.4,14.06601 9.66882,16.38105 11.79409,17.74269 C13.9643,19.1331 16.62829,19.28087 19.10391,18.1419 C19.63066,17.89956 19.86131,17.276 19.6189,16.74918 C19.37656,16.22243 18.75307,15.99178 18.22618,16.23412 C16.41598,17.06698 14.4844,16.97227 12.92697,15.97449 C11.40727,15.00086 10.5,13.34683 10.5,11.55 C10.5,8.65515 12.85515,6.3 15.75,6.3 C18.64485,6.3 21,8.65515 21,11.55 C21,12.12897 20.52897,12.6 19.95,12.6 C19.42094,12.6 18.92674,12.19876 18.90014,11.56596 C18.90007,11.56064 18.9,11.55532 18.9,11.55 C18.9,9.81309 17.48691,8.4 15.75,8.4 C14.01309,8.4 12.6,9.81309 12.6,11.55 C12.6,13.28691 14.01309,14.7 15.75,14.7 C16.55612,14.7 17.29217,14.39529 17.84993,13.89542 C18.40762,14.39536 19.14381,14.7 19.95,14.7 C21.68691,14.7 23.1,13.28691 23.1,11.55 C23.1,7.49721 19.80279,4.2 15.75,4.2 Z M16.78523,11.71842 C16.70417,12.21745 16.2715,12.6 15.75,12.6 C15.17103,12.6 14.7,12.12897 14.7,11.55 C14.7,10.97103 15.17103,10.5 15.75,10.5 C16.28837,10.5 16.7328,10.9074 16.79265,11.42995 C16.77697,11.52536 16.77438,11.62245 16.78523,11.71842 Z" id="Shape"></path>
            <path d="M31.49993,13.78832 C31.49965,13.51679 31.39031,13.2454 31.19242,13.04751 L27.3,9.15509 L27.3,1.05 C27.3,0.47012 26.82988,0 26.25,0 L5.25,0 C4.67012,0 4.2,0.47012 4.2,1.05 L4.2,9.15509 L0.30758,13.04751 C0.30394,13.05115 0.30086,13.05521 0.29729,13.05892 C0.10052,13.26164 0.00049,13.52855 7e-05,13.78832 C7e-05,13.78902 0,13.78965 0,13.79035 L0,32.69 C0,34.42915 1.41512,35.84 3.15,35.84 L28.35,35.84 C30.08873,35.84 31.5,34.42551 31.5,32.69 L31.5,13.79035 C31.5,13.78965 31.49993,13.78902 31.49993,13.78832 Z M27.3,12.12491 L28.96509,13.79 L27.3,15.45509 L27.3,12.12491 Z M6.3,9.59035 C6.3,9.59014 6.3,9.58986 6.3,9.58965 L6.3,2.1 L25.2,2.1 L25.2,9.58965 C25.2,9.58986 25.2,9.59014 25.2,9.59035 L25.2,17.55509 L19.51509,23.24 L11.98491,23.24 L6.3,17.55509 L6.3,9.59035 Z M4.2,12.12491 L4.2,15.45509 L2.53491,13.79 L4.2,12.12491 Z M2.1,32.25509 L2.1,16.32491 L10.06509,24.29 L2.1,32.25509 Z M3.58498,33.74 L11.98491,25.34 L19.51509,25.34 L27.91502,33.74 L3.58498,33.74 Z M29.4,32.25509 L21.43491,24.29 L29.4,16.32491 L29.4,32.25509 Z" id="Shape"></path>
        </g>
    </g>
</svg>