<?xml version="1.0" encoding="UTF-8"?>
<svg width="36px" height="35px" viewBox="0 0 36 35" version="1.1" xmlns="http://www.w3.org/2000/svg" xmlns:xlink="http://www.w3.org/1999/xlink">
    <!-- Generator: Sketch 48.2 (47327) - http://www.bohemiancoding.com/sketch -->
    <title>telephone</title>
    <desc>Created with Sketch.</desc>
    <defs></defs>
    <g id="Contact" stroke="none" stroke-width="1" fill="none" fill-rule="evenodd" transform="translate(-326.000000, -737.000000)">
        <g id="telephone" transform="translate(326.900000, 737.800000)" fill="#093759" fill-rule="nonzero">
            <path d="M31.5976,25.3162 L27.3738,20.9458667 C27.3698667,20.9418 27.3658667,20.9377333 27.3618667,20.9337333 C26.1894667,19.7613333 24.292,19.7612 23.1195333,20.9337333 L21.1911333,22.8620667 C20.3030667,23.7502 18.8655333,23.7503333 17.9773333,22.8620667 C17.9769333,22.8616667 17.9765333,22.8612667 17.9761333,22.8608667 L11.2699333,16.3132667 C10.3818,15.4251333 10.3816667,13.9876 11.2699333,13.0994 L13.1982667,11.1710667 C14.3679333,10.0014667 14.3679333,8.09833333 13.1982667,6.92873333 L8.95593333,2.6864 C7.78626667,1.51686667 5.8832,1.51686667 4.7136,2.6864 C4.7132,2.6868 3.2992,4.10086667 3.29953333,4.10046667 C3.2992,4.10086667 3.17133333,4.22866667 3.171,4.22906667 C-1.0562,8.4562 -1.05773333,15.2984 3.17166667,19.5278 L14.7634667,30.961 C18.9812667,35.1788 25.8119333,35.1945333 30.0466667,30.9758667 C30.0698667,30.9544667 31.5685333,29.5740667 31.5908667,29.5517333 C32.7581333,28.3843333 32.7604,26.4863333 31.5976,25.3162 Z M6.12773333,4.10046667 C6.5176,3.7106 7.15193333,3.7106 7.5418,4.10046667 L11.7841333,8.3428 C12.1749333,8.73366667 12.175,9.36606667 11.7841333,9.75693333 L11.0771333,10.4639333 L5.42066667,4.80753333 L6.12773333,4.10046667 Z M16.1768667,29.5462667 L4.58506667,18.1130667 C1.31853333,14.8464667 1.1636,9.6954 4.03326667,6.24833333 L9.66986667,11.8849333 C8.19353333,13.561 8.25493333,16.1264667 9.85706667,17.7286 L16.5644667,24.2774 C18.1676,25.8792667 20.7248667,25.9452 22.4058,24.4622667 L28.0419333,30.0984 C24.5608667,32.9900667 19.4408,32.8101333 16.1768667,29.5462667 Z M30.1886,28.1255333 L29.5166,28.7448 L23.8266,23.0548 L24.5336,22.3478 C24.9231333,21.9583333 25.5518667,21.9571333 25.9427333,22.3428 C25.9505333,22.3508667 30.1688,26.7155333 30.1767333,26.7234 C30.5626667,27.1094 30.5666,27.7348 30.1886,28.1255333 Z" id="Shape"></path>
            <path d="M17.1346667,0.00133333333 C16.5824667,0.00133333333 16.1347333,0.449066667 16.1347333,1.00126667 C16.1347333,1.55346667 16.5824667,2.0012 17.1346667,2.0012 C25.4050667,2.0012 32.1335333,8.72966667 32.1335333,17.0000667 C32.1335333,17.5522667 32.5812667,18 33.1334667,18 C33.6856667,18 34.1334,17.5523333 34.1334,17.0000667 C34.1334,7.6048 26.5306667,0.00133333333 17.1346667,0.00133333333 Z" id="Shape"></path>
            <path d="M17.1346667,4.001 C16.5824667,4.001 16.1347333,4.44873333 16.1347333,5.00093333 C16.1347333,5.55313333 16.5824667,6.00086667 17.1346667,6.00086667 C23.1996,6.00086667 28.1338667,10.9350667 28.1338667,17.0000667 C28.1338667,17.5522667 28.5816,18 29.1338,18 C29.686,18 30.1337333,17.5523333 30.1337333,17.0000667 C30.1337333,9.8324 24.3023333,4.001 17.1346667,4.001 Z" id="Shape"></path>
            <path d="M17.1346667,8.00073333 C16.5824667,8.00073333 16.1347333,8.44846667 16.1347333,9.00066667 C16.1347333,9.55286667 16.5824667,10.0006 17.1346667,10.0006 C20.9942,10.0006 24.1341333,13.1405333 24.1341333,17.0000667 C24.1341333,17.5522667 24.5818667,18 25.1340667,18 C25.6862667,18 26.134,17.5523333 26.134,17.0000667 C26.134,12.0378 22.0969333,8.00073333 17.1346667,8.00073333 Z" id="Shape"></path>
            <path d="M17.1346667,12.0004 C16.5824667,12.0004 16.1347333,12.4481333 16.1347333,13.0003333 C16.1347333,13.5525333 16.5824667,14.0002667 17.1346667,14.0002667 C18.7887333,14.0002667 20.1344667,15.3459333 20.1344667,17.0000667 C20.1344667,17.5522667 20.5822,18 21.1344,18 C21.6866,18 22.1343333,17.5523333 22.1343333,17.0000667 C22.1342667,14.2432667 19.8914667,12.0004 17.1346667,12.0004 Z" id="Shape"></path>
        </g>
    </g>
</svg>